<?xml version="1.0" encoding="UTF-8" standalone="no"?>
<svg
   xmlns:dc="http://purl.org/dc/elements/1.1/"
   xmlns:cc="http://creativecommons.org/ns#"
   xmlns:rdf="http://www.w3.org/1999/02/22-rdf-syntax-ns#"
   xmlns:svg="http://www.w3.org/2000/svg"
   xmlns="http://www.w3.org/2000/svg"
   xmlns:sodipodi="http://sodipodi.sourceforge.net/DTD/sodipodi-0.dtd"
   xmlns:inkscape="http://www.inkscape.org/namespaces/inkscape"
   width="210mm"
   height="297mm"
   viewBox="0 0 210 297"
   version="1.1"
   id="svg1656"
   inkscape:version="1.0.2 (e86c870879, 2021-01-15, custom)"
   sodipodi:docname="coin_0.svg">
  <defs
     id="defs1650" />
  <sodipodi:namedview
     id="base"
     pagecolor="#ffffff"
     bordercolor="#666666"
     borderopacity="1.0"
     inkscape:pageopacity="0.0"
     inkscape:pageshadow="2"
     inkscape:zoom="0.35"
     inkscape:cx="400"
     inkscape:cy="788.57143"
     inkscape:document-units="mm"
     inkscape:current-layer="layer1"
     inkscape:document-rotation="0"
     showgrid="false"
     inkscape:window-width="1465"
     inkscape:window-height="1040"
     inkscape:window-x="891"
     inkscape:window-y="145"
     inkscape:window-maximized="0" />
  <metadata
     id="metadata1653">
    <rdf:RDF>
      <cc:Work
         rdf:about="">
        <dc:format>image/svg+xml</dc:format>
        <dc:type
           rdf:resource="http://purl.org/dc/dcmitype/StillImage" />
        <dc:title></dc:title>
      </cc:Work>
    </rdf:RDF>
  </metadata>
  <g
     inkscape:label="Warstwa 1"
     inkscape:groupmode="layer"
     id="layer1">
    <path
       id="path1524"
       style="fill:#ffffff;fill-opacity:1;stroke-width:6.91455"
       d="m 110.83639,63.140508 c -0.47302,-0.01387 -0.94604,0.04964 -1.38509,0.185549 -0.85718,0.271788 -1.74574,0.805182 -2.17693,1.593893 -0.8755,1.600699 -0.9565,3.747268 -0.34236,5.465117 1.68563,4.71296 6.55644,7.621152 10.22404,10.996171 1.2492,1.150665 13.03971,9.492517 7.00986,18.61847 -0.23521,0.345752 -0.49132,0.666672 -0.78663,0.964862 0.80231,1.15276 1.5628,2.33165 2.17171,3.58946 0.28225,-0.2169 0.55404,-0.43825 0.81539,-0.65882 4.42627,-3.72393 4.13801,-11.106193 2.32589,-14.825188 -1.60722,-3.301369 -4.1009,-6.145873 -6.68605,-8.754936 -2.33375,-2.354652 -10.31239,-6.924377 -11.23125,-9.785675 -0.43643,-1.355826 -0.8206,-3.511861 0.39462,-4.254682 0.65074,-0.396973 2.34943,0.06796 3.18414,1.180458 0.48347,0.643155 1.27272,1.598867 1.16295,-0.02076 -0.13067,-1.740244 -2.07241,-3.675083 -3.29807,-4.062852 -0.43905,-0.138515 -0.91208,-0.222138 -1.38509,-0.232589 z m -3.44782,23.124846 c -0.15681,0.007 -0.20908,0.203843 -0.18294,0.671369 0.15679,3.902841 -2.76338,5.018574 -3.19616,4.62612 -0.49132,-0.445314 -0.6638,-0.182931 -0.59846,0.353334 0.0784,0.709268 0.15679,0.835753 0.78401,1.947481 0.10454,0.185557 0.1568,0.60291 -0.13067,0.143741 -1.77709,-2.738163 -0.88593,-4.947174 -0.2927,-6.44791 0.33973,-0.857964 -0.0523,-0.940025 -0.51483,-0.389391 -2.2266,2.683968 -4.426796,4.728098 -6.350246,8.34739 -0.27179,0.512997 -0.27963,0.864237 0.44428,0.232589 1.78493,-1.556004 3.174456,-0.315959 2.5977,0.9348 -1.53144,3.31381 -4.22689,4.107133 -5.19304,4.524283 -3.61614,1.56123 -4.01389,1.44415 -5.60073,7.87401 -0.98785,4.00262 0.32928,13.78665 1.54189,19.1159 0.10454,0.5151 0.23521,1.01058 0.37894,1.49223 1.0558,-1.00981 2.11945,-2.08468 3.4839,-2.59456 -0.31885,-1.46505 -0.59847,-3.27853 -0.79708,-5.57299 -0.15682,-7.61471 -0.0523,-14.98984 10.409846,-13.3811 8.15608,1.13159 13.32377,0.41134 16.95218,-1.03673 -0.51745,-1.31322 -1.14465,-2.576 -1.86595,-3.79319 -4.89616,1.57823 -11.44502,0.98342 -13.90003,-0.36587 -4.403,-2.41972 -0.98262,-4.13979 -0.13066,-4.110834 2.09592,0.07058 2.99493,1.736594 3.14206,2.097234 0.43122,1.05815 0.68993,0.7179 1.25443,0.16725 3.94228,-3.846957 2.58724,-11.095705 -1.72222,-14.549593 -0.2352,-0.185557 -0.39985,-0.293223 -0.51483,-0.287736 z m 7.52547,24.431106 c -1.64904,0.0549 -3.54165,0.62094 -4.98894,2.34316 -2.40953,2.86525 -3.36707,6.39978 -3.79593,9.57589 1.21,0.45291 2.4592,0.75736 3.74184,0.90501 0.4312,-4.52709 1.60723,-7.29512 3.20818,-8.74897 1.62291,-1.47499 3.2756,-1.09552 3.61587,-0.92278 0.55664,0.28146 0.91206,1.42926 0.94081,2.20517 0.0783,2.12493 1.58632,1.21887 1.86594,-0.35961 0.13068,-0.79734 0.33975,-3.73438 -1.51053,-4.50028 -0.65594,-0.27179 -1.79277,-0.53993 -3.0762,-0.49706 z m -9.19255,17.24028 c -0.0523,0.82922 -0.10453,1.53379 -0.20907,2.05541 -0.8389,4.37783 -3.04092,9.13592 -8.634856,3.03217 -0.2352,-0.36927 -0.51744,-0.81407 -0.82059,-1.40835 -1.35635,0.41135 -2.55327,1.28552 -3.35793,2.45083 0.83105,1.70445 1.72745,2.96629 2.50623,3.71525 3.82049,3.6668 8.299026,2.80047 10.475966,1.06678 1.65166,-1.31531 3.29756,-3.46515 3.86754,-10.24702 -1.30146,-0.0836 -2.58725,-0.30289 -3.83775,-0.6651 z m 13.01827,-56.083191 c -1.40078,0.04179 -2.97664,0.570499 -4.58726,1.971534 0.96956,0.841763 2.03582,1.58161 3.08823,2.331131 0.88071,-0.578865 1.92866,-0.849615 3.11802,-0.719204 3.31794,0.364309 4.47775,2.490812 4.97717,4.781978 0.2744,1.264351 1.24919,2.219277 1.24658,-0.138507 -0.003,-1.79669 -0.0523,-3.86372 -3.08222,-6.489794 -0.79185,-0.687317 -2.43828,-1.709927 -4.48534,-1.737897 -0.10453,-0.0017 -0.18293,-0.0026 -0.27702,0 z m -7.27956,5.195388 c -0.10453,0.15681 -0.20907,0.307601 -0.30577,0.473546 -0.99831,1.646955 -1.81106,7.924148 1.04274,13.770692 1.33021,2.722164 3.31977,5.965996 5.93654,9.617795 6.55435,9.14697 6.04552,18.30606 -0.77878,21.70457 0.59062,1.25964 1.00092,2.60893 1.13421,3.99093 4.18244,-1.86281 6.36957,-4.72498 7.42955,-7.80209 2.7911,-8.10433 -0.80752,-14.60333 -1.84765,-16.11969 l -6.75792,-9.845788 c -3.06393,-4.464921 -3.68434,-9.530744 -2.58464,-13.045477 -1.10022,-0.905267 -2.20829,-1.799569 -3.26802,-2.744584 z M 95.947214,112.13471 c -0.82583,0.0287 -0.83628,0.33112 -1.05581,0.78506 -0.71345,1.48962 -0.78924,3.09044 -0.84674,4.63813 -0.0523,1.52412 0.37894,2.07502 0.87026,2.3131 0.76834,0.37189 3.63233,3.17031 5.870426,5.03965 3.91483,3.26962 8.90821,3.65458 12.55046,3.17 0.18294,-1.43997 -0.29268,-2.88696 -1.03227,-4.1468 -0.13067,0.0139 -0.26656,0.0208 -0.40245,0.0287 -6.11976,0.3609 -14.053176,-4.19695 -13.186316,-10.42684 0.10454,-0.8206 -0.5462,-0.86267 -0.73697,-1.00667 -0.47564,-0.36013 -1.07933,-0.36013 -1.62552,-0.3894 -0.1568,-0.007 -0.29008,-0.007 -0.40769,-0.006 z M 57.641924,71.853549 c -2.04888,0.0287 -3.69243,1.05058 -4.48533,1.737897 -3.03099,2.626074 -3.07412,4.6932 -3.07621,6.489794 -0.003,2.357261 0.96695,1.402073 1.24136,0.138507 0.49915,-2.29114 1.66471,-4.417826 4.98292,-4.781952 6.13986,-0.674249 8.57213,9.340677 3.0404,17.401997 l -5.47503,7.975948 c 0.94866,0.90893 2.13774,1.55783 3.38224,2.01334 0.3894,-0.63819 0.81275,-1.27742 1.2701,-1.91743 2.61677,-3.651938 4.60685,-6.895736 5.93654,-9.617925 2.85564,-5.846545 2.04105,-12.12379 1.04275,-13.770693 -2.70041,-4.456509 -5.53984,-5.700498 -7.86131,-5.668829 z m -6.33221,33.198101 c -1.27532,2.90971 -2.5794,7.91562 -0.56971,13.75262 1.25441,3.64333 4.09176,6.98688 9.94807,8.72499 1.5628,0.46387 3.79228,0.82086 6.22428,0.69516 -0.10455,-1.43188 -0.13067,-2.87155 -0.2352,-4.30259 -0.65074,0.0627 -1.29363,0.0784 -1.91823,0.0418 -9.46042,-0.55743 -12.92602,-7.97455 -9.68438,-16.69491 -1.33543,-0.59245 -2.58985,-1.34328 -3.75961,-2.21719 z m 29.40047,7.08306 c -0.13067,-0.004 -0.26133,-0.003 -0.40768,0.006 -0.54619,0.0287 -1.14989,0.0287 -1.62553,0.3894 -0.18293,0.14373 -0.85195,0.18554 -0.73696,1.00667 0.57493,4.12661 -2.71269,7.5184 -6.77596,9.23432 0.18293,1.51706 0.29008,3.04364 0.36587,4.57223 1.50791,-0.52346 2.99022,-1.30433 4.3416,-2.4328 2.23705,-1.86934 5.10288,-4.66779 5.87043,-5.03965 0.49132,-0.23782 0.92513,-0.78897 0.87025,-2.3131 -0.0523,-1.54763 -0.13068,-3.14861 -0.84673,-4.63813 -0.20908,-0.45368 -0.23521,-0.75971 -1.05581,-0.78506 z m 19.27861,-3.67937 c -1.31976,0.0287 -2.60553,0.42806 -3.79567,1.92371 -0.32405,0.40716 -0.93036,1.00249 0.18293,1.13263 2.7958,0.32772 3.61352,0.8726 4.755296,1.70784 1.94697,1.42507 3.96738,2.79733 5.82261,4.29053 0.52005,-1.41697 1.22566,-2.76492 2.11161,-3.98492 -0.90685,-0.78662 -2.11945,-1.79879 -4.01754,-3.37374 -0.0783,-0.0706 -0.15682,-0.43434 -0.15682,-0.64733 0.0523,-0.53941 -0.20906,-0.74874 -0.91728,-0.74299 -1.31975,0.0139 -2.66853,-0.33398 -3.987486,-0.30576 z m 12.196886,8.02385 c -0.82061,1.38351 -1.26488,2.94254 -1.57587,4.51831 0.0784,0.0915 0.1568,0.18816 0.2352,0.28146 2.14035,2.64729 4.85906,6.38366 0.91207,10.27704 -0.7239,0.71397 -1.57063,1.00745 -2.4409,1.03072 0,4.1e-4 -0.006,-3.8e-4 -0.006,0 -0.30837,1.32549 -0.73174,2.61659 -1.33805,3.82316 3.02786,0.79368 5.92427,0.37763 8.08317,-2.7625 3.00748,-4.37455 3.41229,-9.8058 -3.19615,-16.49121 -0.2718,-0.2744 -0.44689,-0.45001 -0.67164,-0.67685 z m -15.632686,10.64855 c -2.81252,0.007 -4.22531,2.00237 -5.56467,3.17005 -1.92083,1.67439 -2.39123,5.1257 -1.3903,7.898 0.33711,0.93507 1.0741,3.42395 3.33413,3.72728 1.89471,0.2535 2.84049,0.0993 1.27012,-0.95283 -1.05844,-0.70875 -1.57066,-1.56149 -2.03845,-2.27128 -1.40861,-2.1333 -0.0523,-5.04596 1.42691,-6.18417 4.56713,-3.48564 6.747466,0.28983 9.546376,1.83983 0.0784,0.047 0.15682,0.0863 0.23523,0.13066 0.78922,-1.02627 1.25964,-2.25377 1.5471,-3.52955 -0.0783,-0.0549 -0.1568,-0.10453 -0.20907,-0.15419 -3.65689,-2.75565 -6.237066,-3.679 -8.161296,-3.67333 z m -19.74039,-18.6724 c -1.31976,-0.0287 -2.67323,0.31596 -3.99377,0.3055 -0.71868,-0.005 -0.96694,0.20384 -0.91729,0.74298 0.0194,0.2143 -0.0784,0.57808 -0.1568,0.64734 -5.1724,4.2933 -5.30619,4.46866 -7.81348,7.00512 -1.85287,1.87588 -3.15825,3.65055 -4.00551,5.33327 1.37724,0.5982 2.85878,0.91964 4.35937,1.06077 0.50699,-0.82008 1.10285,-1.58214 1.66211,-2.27128 2.58201,-3.19329 6.26322,-5.53526 9.71417,-8.05983 1.14206,-0.83523 1.96003,-1.38013 4.75531,-1.70785 1.11067,-0.13066 0.50438,-0.72573 0.18292,-1.13263 -1.18908,-1.49564 -2.46964,-1.89496 -3.78964,-1.92371 z m 3.36393,18.67841 c -1.91561,0.0139 -4.47985,0.94291 -8.09519,3.66735 -1.78232,1.34405 -4.92934,2.83661 -7.03991,0.75501 -1.06626,-1.05162 -1.6412,-2.09358 -1.8764,-3.10409 -1.54451,-0.22215 -3.05477,-0.64237 -4.50336,-1.22255 -0.0523,2.35597 0.75526,4.48943 2.08024,6.41788 3.30226,4.80341 8.33144,3.24645 12.91634,0.70719 2.21353,-1.2262 4.04028,-3.83689 6.96778,-3.15207 0.57494,-1.21575 0.96433,-2.5031 1.26488,-3.81117 -0.51222,-0.16726 -1.07671,-0.26212 -1.71438,-0.25873 z m 5.82861,3.34381 c -0.3894,1.27167 -0.86242,2.51851 -1.43997,3.71533 0.72129,1.35295 0.99831,3.09662 0.0784,4.50622 -0.46779,0.70979 -0.98001,1.56254 -2.03843,2.27129 -1.56802,1.05136 -0.6246,1.20712 1.27011,0.95284 2.26056,-0.30369 2.99727,-2.79233 3.33414,-3.72732 0.96432,-2.67642 0.56448,-5.98601 -1.19432,-7.71823 z M 66.060914,63.182429 c -0.47302,0.01387 -0.94605,0.09408 -1.3851,0.232589 -1.22566,0.387821 -3.17942,2.322504 -3.29807,4.062826 -0.10453,1.6169 0.67425,0.660926 1.15772,0.02076 0.83629,-1.112775 2.53498,-1.577431 3.18415,-1.180458 1.21521,0.742716 0.83105,2.898856 0.39722,4.254655 -0.31359,0.97583 -1.45565,2.150801 -2.90842,3.367674 0.82322,0.804659 1.53405,1.717508 2.17172,2.678629 1.97832,-1.791996 3.71334,-3.751368 4.58725,-6.196134 0.61414,-1.71777 0.53313,-3.858459 -0.34235,-5.459105 -0.4312,-0.788973 -1.31975,-1.322106 -2.17694,-1.593894 -0.43905,-0.138507 -0.91207,-0.198618 -1.3851,-0.185549 z m -6.49999,13.542897 c -1.92082,1.393192 -3.74732,2.686734 -4.67742,3.625512 -2.58463,2.609194 -5.07779,5.459605 -6.68606,8.760895 -1.81106,3.719047 -2.09331,11.101307 2.33375,14.825287 3.68068,3.09675 9.0658,6.06475 22.1988,4.24268 10.46107,-1.60879 10.57553,5.77229 10.41586,13.38706 -0.67164,7.75227 -2.27887,10.11939 -3.14207,11.49954 -3.20764,3.50009 -5.29652,3.42394 -6.65599,1.89965 -1.29624,0.68733 -2.6416,1.30199 -4.0476,1.71386 0.58801,1.0281 1.24919,1.68118 1.90776,2.20517 2.17693,1.73371 6.65523,2.60605 10.47597,-1.06051 1.50792,-1.44651 3.43293,-4.79393 4.52114,-9.58192 1.21,-5.32924 2.53498,-15.11327 1.54712,-19.11589 -1.58632,-6.43 -1.98354,-6.31875 -5.60072,-7.88006 -0.96695,-0.41683 -3.66081,-1.2045 -5.19278,-4.518311 -0.57755,-1.250767 0.81015,-2.490812 2.5977,-0.934808 0.7239,0.630609 0.71084,0.279369 0.43643,-0.23259 -1.92344,-3.619291 -4.11763,-5.669459 -6.34422,-8.353392 -0.45734,-0.550381 -0.85981,-0.468059 -0.52269,0.389391 0.59325,1.500858 1.48441,3.709712 -0.2927,6.447823 -0.29791,0.459954 -0.2352,0.04179 -0.13066,-0.143733 0.63505,-1.111728 0.70561,-1.238213 0.79185,-1.947489 0.0523,-0.535218 -0.10453,-0.792375 -0.6063,-0.347838 -0.43383,0.392786 -3.3514,-0.729133 -3.19014,-4.632079 0.0262,-0.833144 -0.18294,-0.802303 -0.7004,-0.377631 -4.30892,3.453888 -5.66318,10.702636 -1.71959,14.549677 0.56448,0.55038 0.8206,0.89038 1.25442,-0.16726 0.1568,-0.3609 1.04795,-2.032678 3.14205,-2.10324 0.86243,-0.0287 4.27733,1.69713 -0.13066,4.11686 -3.50192,1.92422 -15.3353,2.32093 -18.81682,-2.94844 -6.02984,-9.126042 5.75935,-17.467754 7.00986,-18.618558 0.58016,-0.534433 1.19431,-1.055797 1.81628,-1.575861 -0.40245,-1.191957 -1.02705,-2.322765 -1.99138,-3.12212 z m 2.21352,34.007094 c -0.10453,-7.6e-4 -0.23519,0.003 -0.3345,0.006 -1.05581,0.0339 -1.96787,0.26422 -2.52974,0.49707 -1.85028,0.76598 -1.65689,3.7031 -1.51838,4.50028 0.27702,1.57847 1.79016,2.48453 1.87118,0.35961 0.0261,-0.77592 0.37894,-1.92946 0.93558,-2.21119 0.33974,-0.17247 1.99924,-0.55246 3.62189,0.92279 0.31621,0.28617 0.61414,0.62642 0.89377,1.01869 0.82321,-0.82086 1.66472,-1.62447 2.54281,-2.39098 -0.10453,-0.12021 -0.18294,-0.24043 -0.28747,-0.3596 -1.50793,-1.79355 -3.49852,-2.33087 -5.19304,-2.34315 z m 7.95147,7.36478 c -1.09239,0.90318 -2.11684,1.86438 -3.05216,2.92429 2.6e-4,0.002 -5.3e-4,0.004 0,0.006 0.26133,1.38927 0.4312,2.99955 0.49653,4.84787 0.10454,2.60501 0.311,4.66338 0.6246,6.31597 1.34066,-0.0784 2.62226,-0.69462 3.7238,-1.46218 -0.0523,-0.2352 -0.10453,-0.46753 -0.1568,-0.70116 -0.40507,-2.1158 -0.013,-7.14814 -1.64382,-11.93093 z m 17.05984,-59.037533 c -0.2352,0.0026 -0.49131,0.04179 -0.72651,0.08367 -3.59209,0.638976 -7.00541,2.230514 -10.17021,4.04488 -1.602,0.918598 -2.03059,1.30669 -2.81225,3.038201 -1.70393,3.781214 -3.11672,8.537324 -4.10744,11.745134 -0.53052,1.721435 -0.15681,2.018052 0.38415,2.738557 5.74814,7.60312 13.06924,15.899752 16.92789,22.501631 0.36326,0.62016 0.83628,1.78938 2.00706,-0.39487 0.13067,-0.30342 0.15682,-0.2143 0.27964,0.0208 1.16295,2.15577 1.63335,0.99204 1.99662,0.37397 3.85864,-6.601857 11.179746,-14.898515 16.927866,-22.501609 0.54358,-0.720505 0.91469,-1.017384 0.38417,-2.738582 -0.99047,-3.20781 -2.4017,-7.963921 -4.10745,-11.745135 -0.78139,-1.731362 -1.20998,-2.119707 -2.81224,-3.038175 -3.164806,-1.814208 -6.578126,-3.406252 -10.170216,-4.044879 -0.4704,-0.08367 -0.99307,-0.148968 -1.43212,0.03394 -0.27703,0.114986 -0.47303,0.422579 -0.76311,0.533124 -0.10454,0.03394 -0.20908,0.06273 -0.30838,0.03394 -0.3136,-0.08105 -0.49916,-0.448717 -0.78924,-0.570499 -0.20907,-0.09147 -0.46256,-0.12283 -0.70823,-0.120212 z m 52.338026,41.482003 a 50.67736,50.65458 0 0 1 -50.677356,50.65457 50.67736,50.65458 0 0 1 -50.67736,-50.65457 50.67736,50.65458 0 0 1 50.67736,-50.65458 50.67736,50.65458 0 0 1 50.677356,50.65458 z M 88.446424,36.56854 a 63.972966,63.972966 0 0 0 -63.9729,63.97336 63.972966,63.972966 0 0 0 63.9729,63.97289 A 63.972966,63.972966 0 0 0 152.41933,100.5419 63.972966,63.972966 0 0 0 88.446424,36.56854 Z m 0,8.447848 A 55.525179,55.525179 0 0 1 143.97148,100.5419 55.525179,55.525179 0 0 1 88.446424,156.06694 55.525179,55.525179 0 0 1 32.921374,100.5419 55.525179,55.525179 0 0 1 88.446424,45.016388 Z" />
  </g>
</svg>
