<?xml version="1.0" encoding="UTF-8" standalone="no"?>
<svg
   xmlns:dc="http://purl.org/dc/elements/1.1/"
   xmlns:cc="http://creativecommons.org/ns#"
   xmlns:rdf="http://www.w3.org/1999/02/22-rdf-syntax-ns#"
   xmlns:svg="http://www.w3.org/2000/svg"
   xmlns="http://www.w3.org/2000/svg"
   xmlns:sodipodi="http://sodipodi.sourceforge.net/DTD/sodipodi-0.dtd"
   xmlns:inkscape="http://www.inkscape.org/namespaces/inkscape"
   viewBox="0 0 512 512"
   version="1.1"
   id="svg4"
   sodipodi:docname="d2_0.svg"
   inkscape:version="1.0.2 (e86c870879, 2021-01-15, custom)">
  <metadata
     id="metadata10">
    <rdf:RDF>
      <cc:Work
         rdf:about="">
        <dc:format>image/svg+xml</dc:format>
        <dc:type
           rdf:resource="http://purl.org/dc/dcmitype/StillImage" />
        <dc:title></dc:title>
      </cc:Work>
    </rdf:RDF>
  </metadata>
  <defs
     id="defs8" />
  <sodipodi:namedview
     pagecolor="#ffffff"
     bordercolor="#666666"
     borderopacity="1"
     objecttolerance="10"
     gridtolerance="10"
     guidetolerance="10"
     inkscape:pageopacity="0"
     inkscape:pageshadow="2"
     inkscape:window-width="1072"
     inkscape:window-height="869"
     id="namedview6"
     showgrid="false"
     inkscape:zoom="0.4846893"
     inkscape:cx="246.09277"
     inkscape:cy="222.57298"
     inkscape:window-x="0"
     inkscape:window-y="0"
     inkscape:window-maximized="0"
     inkscape:current-layer="svg4" />
  <path
     id="path1524"
     style="fill:#ffffff;fill-opacity:1;stroke-width:26.1337"
     d="m 340.45748,110.34895 c -1.78779,-0.0524 -3.57558,0.18762 -5.23499,0.70129 -3.23973,1.02723 -6.59807,3.04321 -8.22776,6.02416 -3.30898,6.04989 -3.61512,14.1629 -1.29396,20.65556 6.37088,17.81276 24.78024,28.80435 38.64204,41.56033 4.72139,4.34897 49.28394,35.87723 26.49396,70.36902 -0.88898,1.30678 -1.85696,2.51971 -2.97309,3.64672 3.03235,4.35689 5.90664,8.81254 8.20804,13.56647 1.06677,-0.81978 2.09401,-1.65638 3.08179,-2.49003 16.72921,-14.0747 15.63972,-41.97616 8.79076,-56.03221 -6.07453,-12.47761 -15.49946,-23.22849 -25.27011,-33.08952 -8.82047,-8.89947 -38.97596,-26.17087 -42.44882,-36.98523 -1.6495,-5.12438 -3.10148,-13.27317 1.49148,-16.08069 2.45949,-1.50037 8.87973,0.25686 12.03454,4.46158 1.82729,2.43082 4.81028,6.04296 4.39541,-0.0785 -0.49388,-6.5773 -7.83274,-13.89008 -12.46515,-15.35567 -1.6594,-0.52352 -3.44723,-0.83957 -5.23499,-0.87907 z m -13.03113,87.40099 c -0.59267,0.0265 -0.79022,0.77043 -0.69143,2.53746 0.5926,14.7509 -10.44427,18.96784 -12.07997,17.48455 -1.85696,-1.68308 -2.50885,-0.69139 -2.2619,1.33543 0.29632,2.6807 0.59259,3.15876 2.96319,7.36056 0.39511,0.70132 0.59263,2.27872 -0.49387,0.54328 -6.71656,-10.34897 -3.3484,-18.69799 -1.10627,-24.37006 1.28402,-3.2427 -0.19767,-3.55285 -1.94581,-1.47171 -8.4155,10.14413 -16.7312,17.86997 -24.00093,31.54919 -1.02724,1.93888 -1.05687,3.26641 1.67917,0.87907 6.74619,-5.88096 11.99794,-1.19417 9.81807,3.53311 -5.78812,12.52463 -15.97564,15.52302 -19.62723,17.09965 -13.6673,5.90071 -15.17061,5.4582 -21.16812,29.76004 -3.7336,15.12801 1.24453,52.10702 5.82762,72.24907 0.39511,1.94683 0.88898,3.81951 1.43221,5.63992 3.99043,-3.8166 8.01052,-7.8791 13.1675,-9.80621 -1.2051,-5.5372 -2.26193,-12.39129 -3.01259,-21.06327 -0.5927,-28.78 -0.19767,-56.65451 39.3443,-50.57423 30.82613,4.27687 50.35756,1.55467 64.07123,-3.91835 -1.95571,-4.96335 -4.32623,-9.73607 -7.0524,-14.33647 -18.50518,5.96496 -43.25677,3.71686 -52.53555,-1.38282 -16.64126,-9.14539 -3.71384,-15.64645 -0.49383,-15.53701 7.92158,0.26676 11.31942,6.56351 11.8755,7.92656 1.62981,3.9993 2.60761,2.71332 4.74115,0.63212 14.89996,-14.53968 9.77855,-41.93652 -6.50918,-54.99058 -0.88894,-0.70132 -1.51124,-1.10825 -1.94581,-1.08751 z m 28.44272,92.33804 c -6.23259,0.2075 -13.38576,2.34686 -18.85584,8.85604 -9.10688,10.82929 -12.72593,24.18814 -14.34682,36.19234 4.57323,1.71179 9.29462,2.86246 14.14239,3.42051 1.62973,-17.11026 6.07457,-27.57211 12.1254,-33.06697 6.13384,-5.57477 12.38023,-4.14055 13.66629,-3.48768 2.10383,1.06379 3.44715,5.40193 3.55581,8.3345 0.29594,8.03124 5.99554,4.60676 7.05237,-1.35915 0.49391,-3.01357 1.2841,-14.11419 -5.70909,-17.00893 -2.47914,-1.02724 -6.77582,-2.04068 -11.62658,-1.87866 z m -34.74349,65.16011 c -0.19767,3.13406 -0.39508,5.79701 -0.79019,7.76848 -3.17065,16.54613 -11.49324,34.52946 -32.63568,11.46017 -0.88894,-1.39566 -1.95568,-3.0768 -3.10144,-5.32289 -5.12636,1.5547 -9.65015,4.85865 -12.69139,9.26298 3.14098,6.44201 6.52895,11.21117 9.47237,14.04189 14.43964,13.85877 31.36639,10.58445 39.5942,4.03192 6.24249,-4.97125 12.46322,-13.09663 14.61747,-38.72889 -4.9189,-0.31597 -9.77858,-1.14479 -14.50488,-2.51377 z m 49.20291,-211.96796 c -5.29429,0.15795 -11.2503,2.15622 -17.33768,7.45147 3.66448,3.18146 7.69444,5.97773 11.67205,8.81057 3.32867,-2.18784 7.28942,-3.21114 11.78464,-2.71825 12.54025,1.37691 16.92378,9.41409 18.81135,18.07362 1.03711,4.77865 4.72135,8.38781 4.71149,-0.5235 -0.0113,-6.79063 -0.19767,-14.60303 -11.64934,-24.52835 -2.99282,-2.59773 -9.21554,-6.46272 -16.95246,-6.56843 -0.39508,-0.006 -0.69139,-0.01 -1.04701,0 z m -27.5133,19.63611 c -0.39508,0.59267 -0.79019,1.16259 -1.15567,1.78978 -3.77314,6.22471 -6.84495,29.94954 3.94107,52.04671 5.02756,10.28849 12.54716,22.54865 22.43731,36.35072 24.77235,34.57123 22.84921,69.18826 -2.94342,82.03302 2.23227,4.76085 3.78301,9.86053 4.28678,15.08383 15.80765,-7.04054 24.07397,-17.85819 28.08019,-29.48821 10.54904,-30.63054 -3.05205,-55.19369 -6.98325,-60.92481 l -25.54174,-37.21243 c -11.58021,-16.87529 -13.92506,-36.02171 -9.76872,-49.30574 -4.15831,-3.42148 -8.34629,-6.80152 -12.35157,-10.37323 z m -58.63176,132.60765 c -3.12125,0.10847 -3.16074,1.25147 -3.99046,2.96715 -2.69651,5.63006 -2.98296,11.68041 -3.20028,17.52994 -0.19767,5.76046 1.43221,7.8426 3.28917,8.74243 2.90396,1.40557 13.72849,11.98227 22.18744,19.04749 14.79621,12.35762 33.66882,13.81259 47.43481,11.98111 0.69142,-5.44241 -1.10619,-10.91135 -3.9015,-15.67295 -0.49387,0.0525 -1.00747,0.0786 -1.52107,0.10847 -23.1298,1.36404 -53.11436,-15.86248 -49.83804,-39.40853 0.39511,-3.10148 -2.06438,-3.26048 -2.7854,-3.80473 -1.79769,-1.36112 -4.07936,-1.36112 -6.1437,-1.47175 -0.59263,-0.0265 -1.09636,-0.0265 -1.54087,-0.0227 z M 139.40753,143.28013 c -7.7438,0.10847 -13.95564,3.97069 -16.95243,6.56843 -11.45571,9.92532 -11.61872,17.73808 -11.62662,24.52835 -0.0113,8.90934 3.65462,5.29918 4.69176,0.52349 1.88655,-8.65942 6.29181,-16.69729 18.83308,-18.07351 23.20577,-2.54835 32.3986,35.30334 11.49127,65.77132 l -20.69302,30.14532 c 3.58548,3.43532 8.07965,5.88786 12.78327,7.60947 1.47175,-2.41205 3.07181,-4.82804 4.80038,-7.24698 9.89015,-13.8026 17.41171,-26.06262 22.43731,-36.35121 10.79297,-22.09718 7.71421,-45.8222 3.9411,-52.04671 -10.20627,-16.8435 -20.93797,-21.54519 -29.71203,-21.4255 z m -23.93276,125.47314 c -4.82011,10.99733 -9.74892,29.9173 -2.15324,51.9784 4.74108,13.77007 15.46492,26.40711 37.59901,32.97634 5.90664,1.75321 14.33302,3.10247 23.52484,2.62738 -0.39515,-5.41183 -0.49387,-10.8531 -0.88895,-16.26176 -2.45949,0.23698 -4.88931,0.29632 -7.25,0.15799 -35.75592,-2.10683 -48.85425,-30.14004 -36.60238,-63.09888 -5.0473,-2.23918 -9.78841,-5.07696 -14.20955,-8.37993 z m 111.11988,26.77062 c -0.49387,-0.0151 -0.9877,-0.0113 -1.54083,0.0227 -2.06434,0.10848 -4.34604,0.10848 -6.14374,1.47175 -0.69139,0.54323 -3.21997,0.70126 -2.78536,3.80474 2.17296,15.59664 -10.25269,28.416 -25.60993,34.90137 0.69139,5.73377 1.09637,11.50352 1.38282,17.28087 5.69919,-1.97844 11.30162,-4.92976 16.4092,-9.19484 8.45499,-7.06522 19.28647,-17.64204 22.18745,-19.0475 1.85696,-0.89884 3.49655,-2.98193 3.28913,-8.74242 -0.19767,-5.84931 -0.49391,-11.90026 -3.20024,-17.52994 -0.79022,-1.7147 -0.88898,-2.87135 -3.99046,-2.96716 z m 72.86404,-13.90628 c -4.98807,0.10847 -9.84767,1.61786 -14.34584,7.27071 -1.22475,1.53887 -3.51632,3.78894 0.69139,4.28081 10.56681,1.23862 13.6574,3.29801 17.97277,6.45483 7.35863,5.38609 14.99483,10.57258 22.00672,16.21617 1.96554,-5.35547 4.63242,-10.45009 7.98089,-15.06111 -3.42747,-2.97305 -8.01052,-6.79858 -15.18441,-12.75115 -0.29593,-0.26683 -0.5927,-1.6416 -0.5927,-2.4466 0.19767,-2.03871 -0.79015,-2.82988 -3.46689,-2.80815 -4.98803,0.0525 -10.08578,-1.26229 -15.07081,-1.15563 z m 46.09847,30.32636 c -3.10152,5.22901 -4.78065,11.12141 -5.95604,17.07708 0.29631,0.34582 0.59263,0.71115 0.88894,1.06378 8.08951,10.00551 18.36495,24.12722 3.44719,38.84236 -2.736,2.69847 -5.93624,3.80768 -9.22545,3.89563 0,0.002 -0.0227,-10e-4 -0.0227,0 -1.1655,5.00973 -2.76563,9.88948 -5.0572,14.44974 11.44388,2.99974 22.39094,1.42726 30.55056,-10.44094 11.36686,-16.53374 12.89685,-37.0613 -12.07993,-62.32899 -1.02728,-1.0371 -1.68904,-1.70082 -2.53848,-2.55817 z m -59.08417,40.24649 c -10.63,0.0265 -15.96967,7.56801 -21.03182,11.98129 -7.25983,6.3284 -9.03772,19.37272 -5.25468,29.85071 1.27412,3.53412 4.05959,12.94091 12.60144,14.08735 7.16111,0.95811 10.73571,0.37531 4.80045,-3.60124 -4.0004,-2.67874 -5.93635,-5.9017 -7.70438,-8.58437 -5.32388,-8.06286 -0.19767,-19.07134 5.39305,-23.37324 17.26159,-13.17407 25.50223,1.09542 36.08079,6.95369 0.29631,0.17764 0.59271,0.32617 0.88906,0.49383 2.98288,-3.87881 4.76084,-8.51818 5.8473,-13.34003 -0.29593,-0.2075 -0.59262,-0.39507 -0.79018,-0.58276 -13.82132,-10.41506 -23.57316,-13.90489 -30.84584,-13.88346 z m -74.60935,-70.57285 c -4.98807,-0.10848 -10.10354,1.19418 -15.09456,1.15464 -2.71627,-0.0189 -3.65458,0.77042 -3.46692,2.80812 0.0733,0.80995 -0.29632,2.18486 -0.59263,2.44663 -19.54923,16.22665 -20.05489,16.88943 -29.53127,26.47605 -7.00297,7.08994 -11.93669,13.79735 -15.13893,20.15724 5.20532,2.26091 10.80484,3.4758 16.47636,4.00921 1.91618,-3.09952 4.16825,-5.97974 6.28199,-8.58437 9.75878,-12.06912 23.67201,-20.92066 36.71497,-30.46235 4.31645,-3.15677 7.40799,-5.21623 17.97283,-6.45486 4.1978,-0.49383 1.90631,-2.74292 0.69135,-4.28081 -4.49416,-5.65281 -9.33407,-7.16205 -14.32305,-7.27071 z m 12.71407,70.59556 c -7.2401,0.0525 -16.93172,3.56376 -30.59599,13.86085 -6.73633,5.07988 -18.63058,10.72105 -26.60754,2.85358 -4.02996,-3.97462 -6.20296,-7.91274 -7.0919,-11.73199 -5.83752,-0.83962 -11.54559,-2.42786 -17.02058,-4.62066 -0.19767,8.90445 2.85453,16.96792 7.86233,24.25655 12.48098,18.15462 31.48891,12.27005 48.81766,2.67285 8.3661,-4.63446 15.27035,-14.50163 26.33492,-11.91334 2.173,-4.59496 3.64471,-9.46053 4.78065,-14.40442 -1.93595,-0.63216 -4.06946,-0.99069 -6.47955,-0.97788 z m 22.02939,12.63802 c -1.47175,4.80632 -3.25954,9.51878 -5.4424,14.0422 2.72613,5.11351 3.77314,11.70376 0.29631,17.03138 -1.76802,2.68267 -3.70397,5.90566 -7.7043,8.5844 -5.92638,3.97365 -2.36069,4.56235 4.80041,3.60129 8.54385,-1.14781 11.32827,-10.55369 12.60148,-14.08751 3.64467,-10.1156 2.13347,-22.62429 -4.51397,-29.17126 z m -75.37976,-254.3438 c -1.7878,0.0524 -3.57563,0.35558 -5.23503,0.87908 -4.63241,1.46578 -12.0167,8.77797 -12.46515,15.35556 -0.39507,6.11112 2.54835,2.49799 4.37564,0.0785 3.16078,-4.20576 9.58103,-5.96194 12.03458,-4.46157 4.59292,2.80712 3.14098,10.95631 1.50131,16.08059 -1.18523,3.68817 -5.50167,8.12901 -10.99246,12.72821 3.11139,3.04123 5.79799,6.49137 8.20808,10.12396 7.47711,-6.7729 14.03467,-14.1784 17.33764,-23.41846 2.32116,-6.49236 2.01498,-14.58316 -1.29393,-20.63284 -1.62973,-2.98195 -4.98803,-4.99694 -8.2278,-6.02417 -1.6594,-0.52349 -3.44719,-0.75068 -5.23502,-0.70129 z m -24.5669,51.18575 c -7.25979,5.26561 -14.1631,10.15459 -17.67843,13.70273 -9.76868,9.86152 -19.19165,20.63472 -25.27015,33.11204 -6.844952,14.05624 -7.911722,41.9577 8.82047,56.03258 13.91123,11.70425 34.26444,22.92189 83.90098,16.03533 39.5379,-6.08047 39.9705,21.81653 39.36703,50.59676 -2.53849,29.29992 -8.61306,38.24651 -11.87554,43.46283 -12.12337,13.22868 -20.01835,12.94087 -25.1565,7.17978 -4.89918,2.59778 -9.984,4.9209 -15.29802,6.47758 2.2224,3.88573 4.72135,6.35406 7.21043,8.3345 8.22777,6.5526 25.15363,9.84964 39.59422,-4.00823 5.69923,-5.46712 12.97486,-18.11879 17.08778,-36.21513 4.57322,-20.14201 9.58102,-57.12102 5.84738,-72.24903 -5.99554,-24.30236 -7.49685,-23.88189 -21.16808,-29.78291 -3.65461,-1.57542 -13.83613,-4.55244 -19.62625,-17.07708 -2.18287,-4.7273 3.06198,-9.41409 9.81808,-3.53313 2.736,2.38341 2.68664,1.05588 1.6495,-0.87908 -7.2697,-13.67921 -15.5627,-21.42788 -23.97816,-31.57187 -1.72853,-2.08018 -3.24967,-1.76905 -1.97552,1.47171 2.2422,5.67253 5.61037,14.02096 -1.10627,24.36972 -1.12596,1.73841 -0.88894,0.15795 -0.49383,-0.54324 2.40019,-4.2018 2.66687,-4.67986 2.99282,-7.36059 0.19767,-2.02287 -0.39508,-2.9948 -2.29153,-1.31466 -1.63967,1.48455 -12.66671,-2.75578 -12.05722,-17.50707 0.099,-3.14889 -0.69143,-3.03233 -2.64718,-1.42727 -16.28569,13.05407 -21.40415,40.45091 -6.49924,54.99091 2.13347,2.08017 3.10148,3.36521 4.74111,-0.63217 0.59263,-1.36403 3.96076,-7.68256 11.87547,-7.94925 3.25958,-0.10847 16.16629,6.41435 -0.49383,15.55979 -13.23561,7.27264 -57.96019,8.77202 -71.11869,-11.14371 -22.789952,-34.49213 21.76762,-66.01986 26.49395,-70.36936 2.19274,-2.0199 4.51393,-3.99041 6.86469,-5.95601 -1.52108,-4.50503 -3.88177,-8.77895 -7.52648,-11.80014 z m 8.36606,128.53075 c -0.39507,-0.003 -0.8889,0.0113 -1.26425,0.0227 -3.99046,0.12813 -7.43762,0.99863 -9.56122,1.87869 -6.99318,2.89504 -6.26226,13.99597 -5.73876,17.00893 1.04701,5.96587 6.76596,9.39035 7.07218,1.35916 0.0986,-2.93261 1.43221,-7.29245 3.53605,-8.35726 1.28405,-0.65185 7.55618,-2.08803 13.68903,3.48771 1.19512,1.08159 2.32116,2.36758 3.37803,3.85017 3.11134,-3.10246 6.29185,-6.13973 9.61062,-9.03677 -0.39507,-0.45434 -0.69143,-0.90871 -1.0865,-1.35912 -5.69926,-6.77877 -13.22275,-8.80959 -19.62724,-8.856 z m 30.0528,27.83539 c -4.12871,3.4136 -8.00065,7.04648 -11.53572,11.05244 9.8e-4,0.008 -0.002,0.0151 0,0.0227 0.9877,5.25079 1.62973,11.33689 1.87665,18.32266 0.39511,9.84571 1.17543,17.62538 2.36069,23.87138 5.06706,-0.29631 9.91091,-2.62533 14.07421,-5.52634 -0.19767,-0.88895 -0.39508,-1.76705 -0.59263,-2.65006 -1.53098,-7.99672 -0.0491,-27.01659 -6.21287,-45.09328 z M 249.55744,94.925297 c -0.88895,0.01 -1.85692,0.15795 -2.74587,0.31623 -13.5764,2.41503 -26.47714,8.430293 -38.43858,15.287743 -6.05481,3.47186 -7.67468,4.93867 -10.62898,11.48296 -6.44005,14.2912 -11.77973,32.26705 -15.52418,44.39106 -2.00512,6.50621 -0.59267,7.62728 1.4519,10.35045 21.72526,28.7362 49.39555,60.09355 63.97943,85.04554 1.37295,2.34391 3.16074,6.76301 7.58574,-1.49243 0.49387,-1.14678 0.5927,-0.80995 1.0569,0.0786 4.39541,8.14779 6.1733,3.74944 7.54628,1.41343 14.58384,-24.9519 42.25416,-56.30935 63.97934,-85.04545 2.05448,-2.72317 3.4571,-3.84523 1.45198,-10.35055 -3.74351,-12.12401 -9.07729,-30.09986 -15.52422,-44.39106 -2.95328,-6.54373 -4.57315,-8.01149 -10.62894,-11.48287 -11.96147,-6.85685 -24.86221,-12.874023 -38.43861,-15.287733 -1.77789,-0.31623 -3.75333,-0.56303 -5.41274,0.12828 -1.04704,0.43459 -1.78783,1.59715 -2.88419,2.01496 -0.39511,0.12827 -0.79022,0.23708 -1.16553,0.12827 -1.18526,-0.30633 -1.88659,-1.69594 -2.98296,-2.15621 -0.79018,-0.34572 -1.74825,-0.46424 -2.67677,-0.45435 z M 447.37045,251.70767 A 191.53648,191.45038 0 0 1 255.83399,443.15802 191.53648,191.45038 0 0 1 64.297508,251.70767 191.53648,191.45038 0 0 1 255.83399,60.257287 191.53648,191.45038 0 0 1 447.37045,251.70767 Z M 255.83399,9.9194528 A 241.78759,241.78759 0 0 0 14.046646,251.70854 241.78759,241.78759 0 0 0 255.83399,493.49584 241.78759,241.78759 0 0 0 497.62135,251.70854 241.78759,241.78759 0 0 0 255.83399,9.9194528 Z m 0,31.9288842 A 209.85894,209.85894 0 0 1 465.69247,251.70854 209.85894,209.85894 0 0 1 255.83399,461.56696 209.85894,209.85894 0 0 1 45.975528,251.70854 209.85894,209.85894 0 0 1 255.83399,41.848337 Z" />
</svg>
