<?xml version="1.0" standalone="no"?>
<!DOCTYPE svg PUBLIC "-//W3C//DTD SVG 20010904//EN" "http://www.w3.org/TR/2001/REC-SVG-20010904/DTD/svg10.dtd">
<!-- Created using Krita: https://krita.org -->
<svg xmlns="http://www.w3.org/2000/svg" 
    xmlns:xlink="http://www.w3.org/1999/xlink"
    xmlns:krita="http://krita.org/namespaces/svg/krita"
    xmlns:sodipodi="http://sodipodi.sourceforge.net/DTD/sodipodi-0.dtd"
    width="368.64pt"
    height="368.64pt"
    viewBox="0 0 368.64 368.64">
<defs/>
<path id="shape0" fill="#ffffff" fill-rule="evenodd" stroke="#000000" stroke-opacity="0" stroke-width="0" stroke-linecap="square" stroke-linejoin="bevel" d="M184.106 57.4301L183.273 57.4418L182.441 57.4768L181.611 57.5352L180.787 57.6169L179.968 57.722L179.156 57.8505L178.353 58.0023L177.561 58.1774L176.78 58.376L176.013 58.5978L175.26 58.8431L174.523 59.1116L173.804 59.4036L173.104 59.7189L172.425 60.0575L171.768 60.4195L61.7861 124.039L60.7554 124.687L59.8392 125.369L59.0376 126.082L58.3504 126.821L57.7778 127.582L57.3197 128.362L56.9762 129.156L56.7471 129.96L56.6326 130.77L56.6326 131.582L56.7471 132.392L56.9762 133.196L57.3197 133.99L57.7778 134.77L58.3504 135.531L59.0376 136.27L59.8392 136.983L60.7554 137.666L61.7861 138.313L171.768 201.932L172.386 202.273L173.023 202.594L173.679 202.894L174.353 203.173L175.042 203.432L175.746 203.67L176.463 203.887L177.192 204.083L177.933 204.259L178.683 204.415L179.442 204.549L180.208 204.663L180.98 204.756L181.757 204.828L182.538 204.88L183.321 204.911L184.106 204.921L184.89 204.911L185.673 204.88L186.454 204.828L187.231 204.756L188.004 204.663L188.77 204.549L189.528 204.415L190.279 204.259L191.019 204.083L191.748 203.887L192.466 203.67L193.169 203.432L193.858 203.173L194.532 202.894L195.188 202.594L195.825 202.273L196.443 201.932L306.426 138.313L307.457 137.665L308.373 136.983L309.175 136.27L309.862 135.531L310.435 134.77L310.893 133.99L311.236 133.196L311.465 132.392L311.58 131.582L311.58 130.77L311.465 129.96L311.236 129.156L310.893 128.362L310.435 127.583L309.862 126.821L309.175 126.082L308.373 125.37L307.457 124.687L306.426 124.039L196.443 60.4195L195.786 60.0573L195.106 59.7185L194.406 59.403L193.687 59.111L192.951 58.8424L192.198 58.5972L191.431 58.3754L190.65 58.1769L189.858 58.0018L189.055 57.8501L188.244 57.7217L187.425 57.6167L186.6 57.5351L185.771 57.4767L184.94 57.4417L184.106 57.4301M173.78 112.268L182.001 117.406L181.576 117.471L181.158 117.538L180.746 117.607L180.341 117.678L179.943 117.751L179.552 117.826L179.167 117.903L178.79 117.982L178.419 118.063L178.055 118.145L177.697 118.23L177.347 118.317L177.003 118.406L176.666 118.497L176.336 118.589L176.013 118.684L175.696 118.781L175.253 118.919L174.82 119.061L174.397 119.209L173.985 119.361L173.584 119.519L173.192 119.681L172.812 119.848L172.442 120.02L172.082 120.197L171.732 120.379L171.394 120.565L171.065 120.757L170.53 121.093L170.037 121.436L169.585 121.785L169.176 122.14L168.808 122.5L168.482 122.867L168.197 123.24L167.955 123.619L167.754 124.004L167.595 124.396L167.478 124.793L167.403 125.196L167.369 125.605L167.377 126.021L167.427 126.442L167.493 126.777L167.585 127.115L167.703 127.456L167.848 127.8L168.018 128.147L168.214 128.498L168.437 128.851L168.685 129.208L168.96 129.568L169.261 129.931L169.588 130.297L169.941 130.666L170.32 131.039L170.725 131.415L171.156 131.793L171.614 132.175L172.097 132.56L172.607 132.949L173.142 133.34L173.193 132.877L173.276 132.423L173.39 131.979L173.536 131.544L173.713 131.119L173.922 130.703L174.162 130.297L174.435 129.901L174.732 129.509L175.063 129.125L175.428 128.749L175.827 128.381L176.26 128.021L176.727 127.67L177.228 127.327L177.762 126.992L178.072 126.81L178.385 126.634L178.7 126.463L179.019 126.299L179.34 126.14L179.664 125.987L179.991 125.84L180.32 125.699L180.653 125.563L180.988 125.434L181.326 125.31L181.667 125.192L182.011 125.08L182.358 124.974L182.707 124.874L183.059 124.78L183.414 124.691L183.772 124.608L184.133 124.531L184.497 124.46L184.863 124.395L185.232 124.336L185.604 124.282L185.979 124.235L186.357 124.193L186.738 124.157L187.121 124.127L187.507 124.103L187.896 124.084L188.288 124.072L188.683 124.065L189.081 124.064L189.481 124.069L189.884 124.08L190.29 124.097L190.699 124.119L191.078 124.144L191.457 124.174L191.833 124.209L192.209 124.248L192.583 124.292L192.957 124.341L193.329 124.394L193.699 124.453L194.069 124.515L194.437 124.583L194.804 124.656L195.169 124.733L195.534 124.815L195.897 124.901L196.259 124.992L196.62 125.088L196.979 125.189L197.337 125.295L197.694 125.405L198.05 125.52L198.405 125.64L198.758 125.764L199.11 125.893L199.461 126.027L199.81 126.166L200.158 126.309L200.505 126.457L200.851 126.61L201.196 126.768L201.539 126.93L201.881 127.097L202.222 127.269L202.561 127.445L202.9 127.626L203.237 127.812L203.572 128.003L203.907 128.198L204.24 128.398L204.572 128.603L205.113 128.948L205.633 129.293L206.134 129.641L206.615 129.99L207.077 130.341L207.519 130.693L207.941 131.046L208.344 131.401L208.727 131.758L209.09 132.116L209.434 132.476L209.758 132.837L210.063 133.2L210.347 133.564L210.613 133.93L210.858 134.297L211.084 134.666L211.291 135.036L211.477 135.408L211.644 135.781L211.792 136.156L211.92 136.533L212.028 136.91L212.116 137.29L212.185 137.671L212.235 138.053L212.263 138.465L212.267 138.873L212.248 139.277L212.204 139.677L212.137 140.073L212.046 140.465L211.931 140.854L211.792 141.238L211.629 141.619L211.442 141.995L211.231 142.368L210.997 142.737L210.738 143.102L210.456 143.463L210.15 143.82L209.82 144.173L209.465 144.522L209.087 144.868L208.686 145.209L208.26 145.547L207.81 145.881L207.337 146.21L206.839 146.536L206.318 146.858L206.016 147.036L205.712 147.208L205.406 147.376L205.098 147.538L204.787 147.696L204.473 147.848L204.157 147.996L203.839 148.138L203.518 148.276L203.195 148.408L202.87 148.535L202.542 148.657L202.211 148.775L201.879 148.887L201.544 148.994L201.206 149.096L200.866 149.193L200.524 149.286L200.179 149.373L199.832 149.455L199.482 149.532L199.13 149.604L198.776 149.671L198.419 149.733L198.06 149.789L197.698 149.841L197.334 149.888L196.967 149.93L196.598 149.967L196.227 149.998L195.853 150.025L195.477 150.047L195.099 150.064L194.718 150.075L194.334 150.082L193.949 150.083L193.56 150.08L193.17 150.071L192.777 150.058L192.381 150.039L191.984 150.016L191.583 149.987L191.181 149.954L190.776 149.915L190.368 149.871L189.958 149.823L189.546 149.769L189.21 149.721L188.874 149.669L188.537 149.614L188.2 149.557L187.862 149.496L187.523 149.431L187.184 149.364L186.844 149.293L186.504 149.219L186.163 149.142L185.821 149.062L185.479 148.979L185.136 148.892L184.792 148.802L184.448 148.709L184.103 148.613L183.758 148.514L183.412 148.411L183.066 148.306L182.718 148.197L182.371 148.085L182.022 147.969L181.673 147.851L181.323 147.729L180.973 147.604L180.622 147.476L180.271 147.345L179.919 147.21L179.566 147.073L179.213 146.932L178.859 146.788L178.504 146.641L178.149 146.49L177.793 146.337L177.437 146.18L177.08 146.02L176.722 145.857L176.364 145.691L176.005 145.521L175.645 145.348L175.285 145.172L174.925 144.993L174.563 144.811L174.201 144.625L173.839 144.437L173.476 144.245L173.112 144.05L172.748 143.852L172.383 143.65L172.017 143.446L171.651 143.238L171.284 143.027L170.917 142.813L170.549 142.595L170.18 142.375L169.811 142.151L169.441 141.924L169.07 141.694L168.497 141.331L167.936 140.969L167.388 140.608L166.852 140.246L166.33 139.885L165.82 139.525L165.324 139.165L164.84 138.805L164.368 138.445L163.91 138.086L163.464 137.727L163.031 137.369L162.611 137.011L162.204 136.653L161.81 136.295L161.428 135.938L161.06 135.582L160.704 135.225L160.36 134.869L160.03 134.514L159.713 134.158L159.408 133.803L159.116 133.449L158.837 133.094L158.57 132.741L158.317 132.387L158.076 132.034L157.848 131.681L157.633 131.329L157.431 130.976L157.241 130.625L157.065 130.273L156.901 129.922L156.75 129.571L156.611 129.221L156.486 128.871L156.373 128.521L156.273 128.172L156.171 127.757L156.088 127.346L156.024 126.939L155.979 126.536L155.953 126.136L155.945 125.74L155.956 125.348L155.986 124.96L156.036 124.575L156.103 124.195L156.19 123.818L156.296 123.445L156.42 123.075L156.564 122.71L156.726 122.348L156.907 121.99L157.107 121.636L157.326 121.286L157.564 120.939L157.82 120.596L158.096 120.257L158.39 119.922L158.703 119.591L159.035 119.263L159.386 118.939L159.756 118.619L160.145 118.303L160.552 117.99L160.979 117.682L161.424 117.377L161.888 117.076L162.371 116.778L162.729 116.566L163.091 116.358L163.456 116.154L163.825 115.954L164.197 115.757L164.572 115.565L164.951 115.376L165.333 115.192L165.718 115.011L166.107 114.834L166.499 114.662L166.894 114.493L167.293 114.328L167.695 114.167L168.051 114.029L168.409 113.894L168.771 113.761L169.136 113.631L169.505 113.503L169.877 113.378L170.252 113.256L170.631 113.136L171.013 113.018L171.398 112.903L171.787 112.791L172.178 112.681L172.574 112.574L172.972 112.47L173.374 112.368L173.78 112.268M187.704 131.251L187.258 131.261L186.819 131.294L186.389 131.349L185.966 131.426L185.552 131.526L185.145 131.648L184.746 131.793L184.355 131.959L183.973 132.148L183.598 132.36L183.093 132.692L182.667 133.037L182.319 133.395L182.049 133.765L181.858 134.147L181.746 134.541L181.712 134.948L181.756 135.368L181.879 135.799L182.022 136.126L182.209 136.459L182.44 136.799L182.715 137.147L183.034 137.501L183.398 137.862L183.805 138.23L184.257 138.605L184.753 138.988L185.293 139.377L185.877 139.773L186.505 140.176L186.914 140.427L187.319 140.668L187.719 140.897L188.116 141.116L188.509 141.325L188.897 141.523L189.282 141.709L189.662 141.886L190.039 142.051L190.412 142.206L190.78 142.35L191.145 142.483L191.505 142.606L191.862 142.717L192.215 142.818L192.563 142.909L192.908 142.988L193.248 143.057L193.585 143.115L194.005 143.169L194.418 143.206L194.825 143.225L195.225 143.227L195.62 143.212L196.007 143.18L196.388 143.131L196.763 143.064L197.131 142.98L197.493 142.879L197.849 142.76L198.198 142.625L198.54 142.472L198.877 142.302L199.206 142.115L199.775 141.737L200.243 141.344L200.611 140.938L200.88 140.518L201.048 140.083L201.117 139.634L201.086 139.171L200.955 138.693L200.811 138.362L200.624 138.024L200.392 137.679L200.116 137.328L199.796 136.97L199.432 136.606L199.024 136.235L198.572 135.858L198.076 135.474L197.536 135.084L196.952 134.687L196.323 134.284L195.915 134.033L195.51 133.793L195.109 133.563L194.713 133.345L194.32 133.137L193.932 132.941L193.547 132.755L193.167 132.58L192.79 132.416L192.418 132.263L192.05 132.121L191.685 131.99L191.325 131.87L190.969 131.76L190.617 131.662L190.269 131.575L189.925 131.498L189.585 131.432L189.249 131.378L188.736 131.309L188.221 131.266L187.704 131.251M313.824 150.346L313.106 150.416L312.344 150.571L311.536 150.815L310.681 151.147L309.775 151.57L308.817 152.083L203.023 213.173L202.339 213.589L201.666 214.04L201.004 214.524L200.354 215.04L199.717 215.586L199.094 216.161L198.486 216.763L197.894 217.39L197.319 218.042L196.762 218.716L196.222 219.411L195.703 220.125L195.203 220.858L194.725 221.606L194.269 222.37L193.836 223.147L193.427 223.935L193.042 224.734L192.683 225.541L192.351 226.356L192.046 227.176L191.769 228L191.522 228.826L191.305 229.653L191.118 230.48L190.964 231.304L190.842 232.125L190.754 232.941L190.701 233.75L190.683 234.55L190.683 348.093L190.746 349.528L190.93 350.847L191.231 352.046L191.642 353.122L192.157 354.072L192.771 354.892L193.477 355.579L194.269 356.13L195.142 356.541L196.091 356.808L197.108 356.929L198.188 356.9L199.326 356.717L200.515 356.377L201.749 355.878L203.023 355.214L308.818 294.127L309.502 293.711L310.176 293.261L310.838 292.777L311.488 292.261L312.125 291.715L312.747 291.14L313.355 290.538L313.947 289.911L314.522 289.259L315.079 288.585L315.618 287.89L316.138 287.176L316.637 286.443L317.115 285.695L317.571 284.931L318.004 284.155L318.414 283.366L318.798 282.568L319.157 281.76L319.489 280.946L319.794 280.126L320.07 279.302L320.318 278.476L320.535 277.649L320.721 276.822L320.876 275.997L320.997 275.177L321.085 274.361L321.139 273.552L321.157 272.752L321.157 159.208L320.703 157.814L320.237 156.53L319.754 155.36L319.249 154.305L318.718 153.369L318.154 152.554L317.553 151.862L316.911 151.296L316.222 150.859L315.481 150.553L314.683 150.382L313.824 150.346M265.368 226.464L265.368 257.356L270.32 254.385L270.32 263.534L265.368 266.505L265.368 275.424L256.907 280.501L256.907 271.581L241.52 280.814L241.52 269.992L255.42 232.433L265.368 226.464M256.907 241.936L247.098 268.317L256.907 262.432L256.907 241.936M54.7949 150.183L53.616 150.275L52.5277 150.545L51.534 150.977L50.6391 151.56L49.8469 152.278L49.1618 153.12L48.5876 154.07L48.1286 155.117L47.7888 156.246L47.5723 157.443L47.4833 158.697L47.4833 272.238L47.5013 273.039L47.5548 273.848L47.6428 274.663L47.7645 275.484L47.9189 276.309L48.1052 277.135L48.3226 277.963L48.57 278.789L48.8466 279.613L49.1515 280.433L49.4839 281.247L49.8428 282.055L50.2273 282.853L50.6366 283.642L51.0698 284.419L51.5259 285.182L52.0041 285.931L52.5035 286.663L53.0231 287.378L53.5622 288.073L54.1198 288.747L54.695 289.398L55.2869 290.026L55.8947 290.628L56.5174 291.203L57.1542 291.749L57.8042 292.265L58.4664 292.749L59.14 293.199L59.8241 293.615L165.614 354.706L166.888 355.369L168.122 355.868L169.311 356.208L170.449 356.39L171.529 356.419L172.547 356.298L173.495 356.03L174.368 355.619L175.161 355.069L175.867 354.381L176.481 353.561L176.996 352.611L177.407 351.534L177.708 350.335L177.892 349.016L177.955 347.581L177.955 234.037L177.937 233.237L177.884 232.428L177.796 231.613L177.674 230.792L177.52 229.968L177.333 229.141L177.116 228.314L176.868 227.488L176.592 226.664L176.287 225.844L175.955 225.03L175.596 224.222L175.211 223.424L174.802 222.636L174.369 221.859L173.913 221.095L173.434 220.347L172.935 219.614L172.415 218.9L171.876 218.205L171.319 217.531L170.743 216.88L170.152 216.252L169.544 215.65L168.921 215.075L168.284 214.529L167.634 214.014L166.972 213.529L166.298 213.079L165.614 212.663L59.8248 151.573L58.9142 151.135L58.0313 150.784L57.177 150.517L56.3522 150.329L55.5579 150.219L54.7949 150.183L54.7949 150.183M99.8309 223.844L124.352 238.557L124.352 247.66L107.698 237.667L107.698 245.097L108.84 245.441L109.952 245.872L111.124 246.406L112.335 247.076L113.318 247.689L114.27 248.327L115.19 248.992L116.079 249.682L116.936 250.399L117.761 251.141L118.555 251.91L119.317 252.704L120.047 253.525L120.746 254.371L121.413 255.244L122.049 256.142L122.652 257.066L123.225 258.017L123.604 258.691L123.965 259.37L124.305 260.056L124.627 260.747L124.929 261.444L125.211 262.146L125.474 262.854L125.717 263.568L125.941 264.288L126.146 265.013L126.331 265.744L126.496 266.48L126.642 267.223L126.769 267.971L126.876 268.724L126.963 269.484L127.032 270.249L127.08 271.019L127.11 271.796L127.119 272.578L127.094 273.741L127.019 274.833L126.893 275.855L126.717 276.807L126.49 277.689L126.213 278.501L125.886 279.242L125.509 279.914L125.081 280.515L124.603 281.046L124.074 281.507L123.495 281.897L122.866 282.218L122.325 282.427L121.758 282.585L121.164 282.694L120.546 282.753L119.901 282.763L119.23 282.722L118.534 282.631L117.812 282.49L117.064 282.3L116.29 282.059L115.49 281.769L114.665 281.429L113.814 281.038L112.937 280.598L112.034 280.108L111.105 279.568L110.292 279.068L109.481 278.544L108.672 277.995L107.864 277.422L107.057 276.825L106.253 276.204L105.45 275.559L104.648 274.89L103.854 274.207L103.061 273.499L102.269 272.765L101.477 272.006L100.686 271.221L99.8966 270.41L99.1075 269.574L98.3192 268.712L98.3192 258.965L99.0098 259.865L99.6922 260.733L100.366 261.569L101.032 262.372L101.69 263.142L102.339 263.879L102.98 264.583L103.613 265.255L104.238 265.894L105.168 266.796L106.08 267.625L106.973 268.379L107.848 269.06L108.704 269.668L109.542 270.202L110.535 270.753L111.466 271.178L112.334 271.476L113.139 271.646L113.882 271.69L114.562 271.607L115.179 271.396L115.926 270.895L116.507 270.171L116.922 269.223L117.171 268.053L117.255 266.659L117.229 265.82L117.152 264.99L117.024 264.168L116.844 263.356L116.614 262.553L116.332 261.759L115.999 260.974L115.614 260.197L115.179 259.43L114.562 258.48L113.882 257.581L113.139 256.733L112.334 255.938L111.466 255.194L110.535 254.501L109.542 253.861L108.676 253.37L107.788 252.923L106.879 252.519L105.951 252.16L105.007 251.847L104.194 251.606L103.361 251.396L102.509 251.216L101.636 251.068L100.743 250.951L99.8309 250.865L99.8309 223.844"/>
</svg>
